<svg id="svg" version="1.1" xmlns="http://www.w3.org/2000/svg" xmlns:xlink="http://www.w3.org/1999/xlink" width="400" height="400" viewBox="0, 0, 400,400"><g id="svgg"><path id="path0" d="M198.599 105.999 C 198.819 106.354,198.768 106.427,198.442 106.226 C 198.158 106.051,196.617 106.825,194.681 108.115 C 192.876 109.317,190.611 110.818,189.647 111.451 C 188.682 112.083,187.214 113.050,186.383 113.600 C 185.552 114.150,183.282 115.653,181.336 116.940 C 179.391 118.227,177.350 119.621,176.800 120.038 C 176.250 120.455,175.170 121.142,174.400 121.563 C 173.630 121.985,172.380 122.976,171.622 123.765 C 170.863 124.554,170.082 125.200,169.885 125.200 C 169.688 125.200,168.509 125.891,167.264 126.735 C 166.019 127.580,164.550 128.570,164.000 128.936 C 163.450 129.302,162.022 130.276,160.826 131.101 C 159.631 131.925,158.011 132.987,157.226 133.460 C 156.442 133.932,155.170 134.882,154.400 135.569 C 153.630 136.257,152.116 137.400,151.035 138.110 C 149.954 138.819,148.334 139.896,147.435 140.502 C 146.536 141.107,145.282 141.917,144.650 142.302 C 144.017 142.686,143.027 143.371,142.450 143.825 C 141.872 144.278,140.576 145.123,139.568 145.701 C 138.561 146.280,137.504 147.034,137.219 147.377 C 136.382 148.385,134.562 148.115,132.658 146.700 C 131.697 145.985,130.390 145.086,129.755 144.702 C 129.120 144.317,127.790 143.462,126.800 142.800 C 125.810 142.138,124.478 141.283,123.841 140.898 C 123.204 140.514,121.804 139.436,120.731 138.503 C 119.658 137.570,118.110 136.438,117.290 135.987 C 116.471 135.537,115.170 134.731,114.400 134.196 C 113.630 133.662,112.402 132.814,111.670 132.312 C 110.939 131.811,109.589 130.826,108.670 130.125 C 107.752 129.423,105.380 127.768,103.400 126.446 C 101.420 125.125,99.170 123.577,98.400 123.007 C 97.630 122.438,94.930 120.638,92.400 119.009 C 89.870 117.380,87.170 115.581,86.400 115.012 C 83.953 113.202,80.673 111.151,78.329 109.966 C 77.080 109.335,75.944 108.633,75.804 108.406 C 75.361 107.690,73.464 106.903,71.600 106.661 C 70.219 106.482,70.033 106.516,70.800 106.804 C 71.582 107.099,71.401 107.136,69.971 106.977 C 68.110 106.769,66.000 107.794,66.000 108.905 C 66.000 109.152,66.258 109.004,66.572 108.576 C 67.129 107.822,67.156 107.828,67.547 108.800 C 67.768 109.350,67.961 109.622,67.975 109.404 C 68.010 108.853,70.640 111.941,71.378 113.400 C 71.712 114.060,74.397 119.820,77.345 126.200 C 104.040 183.978,132.438 243.248,134.496 245.485 C 135.134 246.177,135.473 246.282,136.063 245.966 C 137.301 245.304,152.386 214.552,169.893 177.000 C 179.231 156.970,189.981 134.196,196.623 120.370 C 201.005 111.248,201.151 110.859,201.077 108.470 C 201.035 107.112,200.820 105.998,200.600 105.995 C 200.380 105.992,199.767 105.873,199.237 105.732 C 198.505 105.536,198.353 105.600,198.599 105.999 M93.967 226.145 C 94.500 226.801,96.000 227.793,96.000 227.489 C 96.000 227.413,95.415 226.922,94.700 226.399 C 93.896 225.810,93.616 225.713,93.967 226.145 M0.428 248.731 C 0.404 250.572,0.559 251.020,1.569 252.031 C 2.711 253.172,4.000 253.587,4.000 252.813 C 4.000 252.599,3.700 252.540,3.334 252.681 C 2.890 252.851,2.764 252.782,2.955 252.473 C 3.144 252.167,3.024 252.093,2.604 252.254 C 2.191 252.412,2.008 252.305,2.084 251.949 C 2.148 251.647,1.953 251.452,1.651 251.516 C 1.295 251.592,1.188 251.409,1.346 250.996 C 1.504 250.584,1.431 250.457,1.140 250.637 C 0.824 250.832,0.757 250.508,0.916 249.558 C 1.040 248.811,0.988 247.840,0.799 247.400 C 0.549 246.815,0.449 247.174,0.428 248.731 " stroke="none" fill="#f7ba23" fill-rule="evenodd"></path><path id="path1" d="M326.306 103.661 C 325.265 104.121,324.503 104.642,324.613 104.821 C 324.723 104.999,324.602 105.275,324.345 105.434 C 324.052 105.615,323.984 105.550,324.162 105.262 C 324.853 104.144,323.606 104.967,321.785 106.832 C 320.693 107.950,319.170 109.217,318.400 109.648 C 316.292 110.829,314.189 112.433,314.284 112.790 C 314.331 112.964,314.061 113.082,313.684 113.053 C 313.268 113.021,313.052 113.235,313.133 113.600 C 313.207 113.930,313.139 114.073,312.984 113.917 C 312.828 113.762,312.066 114.122,311.289 114.717 C 310.512 115.313,309.292 116.160,308.578 116.600 C 305.708 118.369,302.800 120.404,302.800 120.644 C 302.800 120.784,303.115 120.651,303.500 120.349 C 304.133 119.852,304.148 119.866,303.655 120.496 C 303.355 120.878,302.995 121.124,302.855 121.043 C 302.375 120.762,300.748 121.593,300.995 121.992 C 301.134 122.217,300.988 122.294,300.661 122.168 C 300.342 122.046,299.945 122.166,299.779 122.435 C 299.573 122.768,299.643 122.821,300.000 122.600 C 300.349 122.384,300.427 122.433,300.234 122.745 C 300.075 123.002,299.768 123.104,299.551 122.970 C 299.335 122.836,298.672 123.206,298.079 123.791 C 297.486 124.377,296.116 125.429,295.035 126.128 C 293.954 126.828,292.408 127.850,291.598 128.400 C 290.788 128.950,289.512 129.793,288.763 130.272 C 288.013 130.752,286.860 131.526,286.200 131.991 C 285.540 132.457,284.116 133.414,283.035 134.119 C 281.954 134.823,280.334 135.896,279.435 136.502 C 278.536 137.107,277.288 137.917,276.662 138.302 C 276.036 138.686,274.886 139.495,274.107 140.100 C 273.328 140.705,272.549 141.200,272.376 141.200 C 272.203 141.200,271.282 141.794,270.331 142.519 C 269.379 143.245,267.845 144.263,266.922 144.781 L 265.245 145.722 263.808 144.461 C 262.298 143.135,261.745 142.863,262.261 143.700 C 262.430 143.975,261.867 143.519,261.009 142.686 C 260.151 141.854,259.219 141.261,258.937 141.369 C 258.656 141.477,258.302 141.365,258.151 141.121 C 257.985 140.852,258.059 140.789,258.338 140.962 C 258.592 141.119,258.800 141.151,258.800 141.034 C 258.800 140.917,258.215 140.525,257.500 140.163 C 256.785 139.802,255.808 139.149,255.330 138.711 C 254.807 138.234,254.248 138.038,253.930 138.222 C 253.638 138.391,253.535 138.380,253.699 138.198 C 253.864 138.017,253.565 137.583,253.034 137.234 C 246.552 132.972,244.362 131.458,243.053 130.331 C 242.203 129.599,241.016 128.730,240.415 128.400 C 239.815 128.070,238.801 127.387,238.162 126.882 C 237.523 126.377,234.930 124.637,232.400 123.015 C 229.870 121.394,227.181 119.557,226.425 118.934 C 225.669 118.310,224.904 117.845,224.725 117.900 C 224.546 117.955,224.445 117.775,224.500 117.500 C 224.555 117.225,224.287 117.025,223.904 117.055 C 223.509 117.086,223.321 116.927,223.470 116.687 C 223.634 116.421,223.477 116.362,223.045 116.527 C 222.582 116.705,222.452 116.640,222.645 116.327 C 222.838 116.015,222.707 115.950,222.245 116.127 C 221.867 116.272,221.654 116.237,221.770 116.049 C 222.062 115.576,220.543 114.265,220.053 114.567 C 219.834 114.702,219.525 114.602,219.366 114.345 C 219.185 114.052,219.250 113.984,219.538 114.162 C 219.792 114.319,220.000 114.337,220.000 114.202 C 220.000 114.067,218.974 113.502,217.720 112.948 C 216.467 112.393,214.892 111.494,214.220 110.948 C 212.691 109.706,209.104 107.383,207.000 106.272 C 205.407 105.431,198.989 104.934,199.455 105.689 C 199.561 105.860,199.952 106.000,200.324 106.000 C 202.553 106.001,201.428 110.369,196.623 120.370 C 189.981 134.196,179.231 156.970,169.893 177.000 C 152.386 214.552,137.301 245.304,136.063 245.966 C 135.473 246.282,135.134 246.177,134.496 245.485 C 132.438 243.248,104.040 183.978,77.345 126.200 C 70.488 111.359,69.236 109.134,67.951 109.500 C 67.381 109.662,67.550 108.507,68.190 107.867 C 68.709 107.348,68.707 107.250,68.169 107.043 C 67.772 106.891,67.659 106.971,67.845 107.273 C 68.032 107.575,67.917 107.654,67.514 107.499 C 66.719 107.194,65.994 107.919,66.299 108.714 C 66.442 109.087,66.370 109.228,66.115 109.071 C 65.581 108.741,59.056 121.844,59.443 122.470 C 59.606 122.733,59.546 122.814,59.301 122.663 C 58.769 122.334,55.061 129.851,55.446 130.475 C 55.602 130.727,55.545 130.813,55.316 130.672 C 54.771 130.335,52.224 135.392,52.618 136.030 C 52.810 136.339,52.759 136.422,52.482 136.251 C 52.206 136.080,51.941 136.506,51.776 137.389 C 51.630 138.165,51.332 138.800,51.113 138.800 C 50.894 138.800,50.804 139.033,50.913 139.317 C 51.022 139.601,50.861 140.175,50.556 140.593 C 50.250 141.011,50.000 141.175,50.000 140.956 C 50.000 140.738,50.225 140.308,50.500 139.999 C 50.920 139.528,50.896 139.517,50.350 139.927 C 49.992 140.195,49.470 141.267,49.189 142.308 C 48.907 143.348,46.542 148.487,43.931 153.727 C 41.321 158.966,39.307 163.449,39.455 163.688 C 39.606 163.933,39.540 164.010,39.304 163.864 C 38.848 163.583,38.271 164.668,38.596 165.194 C 38.706 165.371,38.508 165.627,38.156 165.761 C 37.780 165.906,37.615 166.261,37.754 166.624 C 37.884 166.964,37.832 167.143,37.637 167.023 C 37.183 166.742,36.715 167.938,37.061 168.498 C 37.205 168.732,37.138 168.809,36.912 168.669 C 36.673 168.522,36.286 169.178,35.992 170.228 C 35.713 171.225,33.444 176.105,30.951 181.072 C 28.457 186.039,26.502 190.241,26.606 190.410 C 26.710 190.578,26.506 190.827,26.152 190.963 C 25.745 191.119,25.585 191.501,25.717 192.005 C 25.832 192.443,25.777 192.709,25.595 192.597 C 25.414 192.485,25.138 192.973,24.982 193.682 C 24.826 194.392,23.448 197.449,21.920 200.476 C 20.366 203.554,19.269 206.188,19.432 206.452 C 19.604 206.729,19.552 206.818,19.307 206.666 C 18.862 206.391,16.246 211.364,15.766 213.400 C 15.610 214.060,13.979 217.644,12.141 221.365 C 10.304 225.085,8.800 228.410,8.800 228.754 C 8.800 229.098,6.901 233.174,4.580 237.812 C 0.757 245.452,0.401 246.349,0.787 247.366 C 1.071 248.113,1.086 248.950,0.831 249.873 C 0.487 251.119,0.513 251.205,1.090 250.729 C 1.660 250.259,1.681 250.295,1.278 251.050 C 0.612 252.301,1.934 253.478,3.227 252.785 C 3.997 252.374,4.087 252.397,3.873 252.953 C 3.667 253.491,3.935 253.600,5.462 253.600 C 7.128 253.600,7.247 253.538,6.749 252.935 C 6.253 252.333,6.284 252.314,7.071 252.733 C 8.043 253.251,9.338 252.948,8.936 252.296 C 8.780 252.043,8.870 251.996,9.163 252.177 C 9.439 252.347,9.999 252.163,10.452 251.753 C 11.226 251.053,12.368 250.295,15.205 248.600 C 15.941 248.160,17.276 247.145,18.172 246.345 C 19.638 245.034,21.541 243.735,24.977 241.698 C 25.624 241.314,26.974 240.259,27.977 239.353 C 28.979 238.447,30.368 237.416,31.062 237.062 C 31.756 236.708,32.575 236.168,32.882 235.861 C 33.188 235.555,34.021 235.003,34.733 234.635 C 35.489 234.244,35.912 233.781,35.751 233.521 C 35.578 233.240,35.660 233.190,35.974 233.384 C 36.285 233.576,37.023 233.164,37.936 232.290 C 38.741 231.519,39.940 230.597,40.600 230.241 C 41.260 229.886,42.250 229.257,42.800 228.843 C 44.117 227.854,50.472 223.621,52.192 222.587 C 52.937 222.139,53.873 221.484,54.273 221.131 C 54.673 220.779,56.132 219.924,57.515 219.231 C 59.077 218.450,59.925 217.803,59.753 217.525 C 59.581 217.246,59.658 217.188,59.956 217.373 C 60.245 217.551,61.141 217.019,62.209 216.035 C 63.184 215.136,64.160 214.400,64.378 214.400 C 64.595 214.400,65.685 213.590,66.800 212.600 C 67.915 211.610,69.011 210.800,69.237 210.800 C 69.463 210.800,69.560 210.659,69.453 210.486 C 69.346 210.313,69.592 210.171,70.000 210.171 C 70.408 210.171,70.654 210.313,70.547 210.486 C 70.440 210.659,70.606 210.800,70.914 210.800 C 71.223 210.800,71.808 211.166,72.213 211.614 C 72.618 212.062,73.195 212.334,73.496 212.219 C 73.796 212.103,73.942 212.169,73.821 212.365 C 73.604 212.717,76.139 214.427,77.088 214.570 C 77.357 214.610,77.717 214.798,77.888 214.986 C 78.060 215.174,77.975 215.199,77.700 215.041 C 77.425 214.882,77.200 214.849,77.200 214.966 C 77.200 215.083,77.785 215.475,78.500 215.837 C 79.215 216.198,80.192 216.851,80.670 217.289 C 81.174 217.749,81.748 217.956,82.032 217.780 C 82.347 217.585,82.421 217.642,82.238 217.938 C 82.081 218.192,82.130 218.400,82.346 218.400 C 82.562 218.400,83.289 218.863,83.961 219.429 C 84.646 220.005,85.390 220.330,85.654 220.167 C 85.922 220.001,86.017 220.048,85.877 220.276 C 85.741 220.496,86.907 221.468,88.469 222.438 C 90.031 223.407,92.139 224.919,93.154 225.797 C 94.169 226.676,94.640 226.960,94.200 226.429 L 93.400 225.464 94.700 226.407 C 96.025 227.369,96.400 227.838,95.500 227.409 C 95.225 227.278,95.339 227.402,95.754 227.685 C 96.168 227.968,97.004 228.605,97.611 229.100 C 98.809 230.076,99.416 230.273,98.962 229.538 C 98.779 229.243,98.853 229.185,99.165 229.378 C 99.433 229.544,99.557 229.776,99.440 229.894 C 99.322 230.011,101.488 231.608,104.252 233.443 C 107.017 235.277,109.996 237.426,110.873 238.219 C 111.910 239.155,112.697 239.572,113.122 239.409 C 113.481 239.271,113.656 239.277,113.510 239.423 C 113.095 239.838,115.524 241.694,116.054 241.367 C 116.341 241.189,116.417 241.249,116.249 241.521 C 116.088 241.782,116.518 242.245,117.287 242.639 C 118.009 243.010,119.072 243.692,119.650 244.156 C 120.227 244.620,121.292 245.360,122.017 245.800 C 125.236 247.755,126.044 248.307,127.228 249.362 C 127.920 249.979,128.732 250.520,129.032 250.564 C 129.332 250.608,129.717 250.798,129.888 250.986 C 130.060 251.174,129.930 251.196,129.600 251.034 C 129.270 250.873,129.355 251.028,129.789 251.379 C 130.222 251.730,130.817 251.926,131.109 251.813 C 131.402 251.701,131.542 251.770,131.421 251.966 C 131.105 252.478,133.432 253.200,135.400 253.200 C 137.368 253.200,139.695 252.478,139.379 251.966 C 139.258 251.770,139.418 251.709,139.736 251.831 C 140.074 251.961,141.163 251.298,142.361 250.234 C 143.487 249.234,144.992 248.121,145.704 247.760 C 146.417 247.399,147.327 246.816,147.727 246.465 C 148.127 246.114,149.055 245.461,149.788 245.013 C 150.522 244.566,152.625 243.194,154.461 241.965 C 156.298 240.736,158.318 239.386,158.950 238.965 C 159.583 238.544,160.527 237.915,161.049 237.566 C 161.571 237.217,161.864 236.783,161.699 236.602 C 161.535 236.420,161.642 236.412,161.937 236.583 C 162.290 236.786,163.046 236.349,164.137 235.311 C 165.052 234.441,166.478 233.344,167.307 232.874 C 168.135 232.404,169.035 231.832,169.307 231.604 C 169.990 231.030,176.865 226.448,179.135 225.055 C 180.161 224.426,181.090 223.776,181.200 223.611 C 181.310 223.446,181.991 223.009,182.713 222.639 C 183.482 222.245,183.912 221.782,183.751 221.521 C 183.588 221.257,183.658 221.189,183.922 221.352 C 184.395 221.644,187.724 219.457,187.360 219.093 C 187.243 218.976,187.474 218.907,187.873 218.940 C 188.329 218.978,188.550 218.776,188.467 218.400 C 188.393 218.070,188.464 217.931,188.624 218.091 C 188.784 218.251,189.507 217.891,190.230 217.291 C 190.953 216.691,192.801 215.392,194.336 214.404 C 195.872 213.416,197.045 212.473,196.943 212.308 C 196.842 212.144,197.000 212.102,197.295 212.215 C 197.589 212.328,198.352 211.876,198.990 211.210 C 200.502 209.632,200.963 209.680,203.082 211.633 C 204.266 212.724,205.072 213.181,205.514 213.011 C 205.878 212.872,206.056 212.877,205.910 213.023 C 205.598 213.335,207.289 214.815,209.000 215.727 C 209.660 216.079,210.806 216.911,211.548 217.577 C 212.289 218.243,213.041 218.698,213.220 218.588 C 213.399 218.477,213.675 218.598,213.834 218.855 C 214.015 219.148,213.950 219.216,213.662 219.038 C 213.408 218.881,213.200 218.849,213.200 218.966 C 213.200 219.083,213.785 219.475,214.500 219.837 C 215.215 220.198,216.192 220.851,216.670 221.289 C 217.193 221.766,217.752 221.962,218.070 221.778 C 218.362 221.609,218.465 221.620,218.301 221.802 C 218.136 221.983,218.430 222.417,218.954 222.766 C 219.478 223.115,221.503 224.456,223.454 225.746 C 225.404 227.036,227.450 228.430,228.000 228.844 C 228.550 229.258,229.630 229.942,230.400 230.363 C 231.170 230.785,232.420 231.776,233.178 232.565 C 234.492 233.932,235.569 234.520,234.962 233.538 C 234.779 233.243,234.853 233.185,235.165 233.378 C 235.433 233.544,235.559 233.774,235.444 233.890 C 235.134 234.199,237.996 236.049,238.400 235.800 C 238.590 235.683,238.875 235.798,239.034 236.055 C 239.227 236.367,239.149 236.416,238.800 236.200 C 238.443 235.979,238.373 236.032,238.579 236.365 C 238.745 236.634,239.172 236.743,239.528 236.606 C 239.884 236.470,240.052 236.481,239.901 236.632 C 239.497 237.037,242.754 239.275,243.278 238.952 C 243.534 238.794,243.612 238.856,243.462 239.099 C 243.220 239.491,243.907 240.027,247.480 242.238 C 248.225 242.700,249.442 243.665,250.183 244.383 C 251.018 245.192,251.720 245.573,252.027 245.383 C 252.340 245.190,252.422 245.241,252.249 245.521 C 252.088 245.782,252.518 246.244,253.287 246.637 C 254.009 247.005,255.377 248.018,256.326 248.886 C 257.475 249.937,258.274 250.380,258.714 250.211 C 259.078 250.072,259.256 250.077,259.110 250.223 C 258.722 250.612,261.108 252.504,261.602 252.199 C 261.832 252.057,261.970 252.179,261.910 252.470 C 261.837 252.822,262.172 252.974,262.909 252.923 C 263.519 252.881,263.914 253.016,263.786 253.223 C 263.653 253.438,264.347 253.600,265.400 253.600 C 266.649 253.600,267.159 253.457,266.974 253.157 C 266.787 252.855,266.987 252.805,267.600 253.000 C 268.208 253.193,268.412 253.144,268.229 252.847 C 268.065 252.582,268.181 252.495,268.523 252.626 C 268.834 252.745,269.608 252.408,270.244 251.878 C 270.880 251.347,271.940 250.616,272.600 250.254 C 273.260 249.891,274.250 249.257,274.800 248.843 C 276.143 247.834,282.493 243.608,284.237 242.562 C 285.006 242.100,286.212 241.180,286.917 240.516 C 287.623 239.852,289.640 238.389,291.400 237.265 C 295.852 234.423,297.151 233.447,296.940 233.105 C 296.840 232.942,297.029 232.913,297.359 233.040 C 297.727 233.181,298.702 232.589,299.880 231.509 C 300.936 230.540,302.478 229.358,303.307 228.883 C 304.135 228.408,305.035 227.832,305.307 227.604 C 306.186 226.865,313.191 222.229,315.027 221.172 C 316.008 220.607,316.679 220.013,316.518 219.851 C 316.356 219.690,316.563 219.688,316.978 219.847 C 317.499 220.047,317.643 219.993,317.445 219.673 C 317.252 219.360,317.382 219.295,317.845 219.473 C 318.347 219.665,318.444 219.594,318.204 219.206 C 317.977 218.840,318.030 218.771,318.374 218.984 C 318.685 219.176,319.423 218.765,320.336 217.893 C 321.710 216.579,323.479 215.311,326.636 213.377 C 327.935 212.582,329.175 211.538,328.038 212.198 C 327.657 212.419,327.570 212.373,327.766 212.055 C 327.925 211.798,328.216 211.686,328.413 211.808 C 328.610 211.930,329.137 211.663,329.585 211.215 C 330.033 210.767,330.687 210.400,331.038 210.400 C 331.711 210.400,338.168 214.501,338.602 215.204 C 338.741 215.429,339.010 215.517,339.200 215.400 C 339.390 215.283,339.675 215.398,339.834 215.655 C 340.032 215.976,339.946 216.017,339.562 215.785 C 339.082 215.496,339.082 215.548,339.564 216.141 C 339.881 216.532,340.401 216.732,340.752 216.597 C 341.095 216.465,341.247 216.487,341.089 216.644 C 340.932 216.802,341.371 217.306,342.064 217.765 C 342.758 218.224,343.986 219.050,344.792 219.600 C 345.599 220.150,347.123 221.140,348.180 221.800 C 349.237 222.460,350.881 223.691,351.833 224.535 C 352.867 225.451,353.758 225.950,354.044 225.773 C 354.369 225.572,354.418 225.647,354.196 226.006 C 353.951 226.403,354.058 226.464,354.622 226.247 C 355.037 226.088,355.256 226.077,355.110 226.223 C 354.722 226.612,357.108 228.504,357.602 228.199 C 357.832 228.057,357.970 228.118,357.910 228.334 C 357.849 228.551,359.060 229.541,360.600 230.534 C 362.140 231.527,363.850 232.687,364.400 233.112 C 364.950 233.537,365.940 234.165,366.600 234.508 C 367.260 234.851,368.420 235.777,369.178 236.566 C 370.492 237.933,371.568 238.519,370.962 237.538 C 370.779 237.243,370.853 237.185,371.165 237.378 C 371.433 237.544,371.559 237.774,371.444 237.890 C 371.116 238.218,374.009 240.042,374.437 239.777 C 374.648 239.647,374.770 239.712,374.710 239.922 C 374.553 240.467,378.793 243.252,379.301 242.938 C 379.535 242.793,379.607 242.865,379.462 243.099 C 379.319 243.331,379.786 243.894,380.501 244.348 C 381.215 244.803,382.250 245.483,382.800 245.861 C 391.143 251.583,393.155 252.540,395.944 252.112 C 400.218 251.456,401.149 247.843,398.465 242.333 C 397.769 240.905,397.200 239.454,397.200 239.108 C 397.200 238.763,396.128 236.347,394.818 233.740 C 393.508 231.133,392.240 228.230,391.999 227.288 C 391.724 226.210,391.398 225.677,391.120 225.850 C 390.865 226.007,390.788 225.942,390.940 225.697 C 391.085 225.462,390.303 223.458,389.202 221.243 C 388.101 219.028,387.200 217.036,387.200 216.816 C 387.200 215.851,385.877 213.229,385.506 213.458 C 385.278 213.599,385.179 213.465,385.283 213.156 C 385.386 212.850,385.184 212.362,384.835 212.070 C 384.486 211.779,384.448 211.669,384.752 211.826 C 385.055 211.983,385.231 211.951,385.141 211.756 C 383.328 207.795,381.854 205.243,381.505 205.458 C 381.249 205.617,381.193 205.535,381.366 205.255 C 381.527 204.995,380.370 202.252,378.768 199.093 C 377.180 195.962,375.483 192.230,374.998 190.800 C 374.357 188.914,373.930 188.216,373.443 188.258 C 372.880 188.306,372.855 188.214,373.286 187.683 C 373.728 187.139,373.694 187.090,373.043 187.334 C 372.436 187.562,372.376 187.511,372.740 187.073 C 373.273 186.430,371.995 183.360,371.414 183.888 C 371.226 184.060,371.186 184.000,371.325 183.756 C 371.627 183.226,369.697 179.200,369.141 179.200 C 368.927 179.200,368.850 179.043,368.968 178.852 C 369.086 178.661,366.578 173.306,363.395 166.952 C 360.212 160.598,357.496 154.817,357.360 154.104 C 357.215 153.347,356.938 152.915,356.694 153.065 C 356.464 153.208,356.394 153.133,356.539 152.898 C 356.885 152.338,356.417 151.142,355.963 151.423 C 355.768 151.543,355.728 151.333,355.873 150.955 C 356.065 150.453,355.994 150.356,355.606 150.596 C 355.265 150.807,355.172 150.768,355.345 150.488 C 355.493 150.249,354.097 147.026,352.243 143.327 C 350.389 139.627,348.509 135.520,348.065 134.200 C 347.622 132.880,346.366 130.090,345.275 128.000 C 344.183 125.910,343.166 123.613,343.013 122.897 C 342.860 122.180,342.586 121.685,342.405 121.797 C 342.223 121.909,342.168 121.643,342.283 121.205 C 342.415 120.701,342.255 120.319,341.848 120.163 C 341.494 120.027,341.304 119.755,341.426 119.558 C 341.548 119.361,341.446 119.200,341.200 119.200 C 340.954 119.200,340.853 119.039,340.974 118.841 C 341.096 118.644,340.388 116.889,339.400 114.941 C 338.413 112.994,337.494 110.817,337.358 110.104 C 337.215 109.347,336.938 108.915,336.694 109.065 C 336.451 109.216,336.396 109.131,336.563 108.861 C 336.720 108.606,336.372 107.523,335.790 106.453 C 333.886 102.954,330.302 101.899,326.306 103.661 M69.456 106.891 C 69.700 107.285,71.253 107.281,71.877 106.885 C 72.140 106.718,71.661 106.582,70.809 106.582 C 69.960 106.582,69.351 106.721,69.456 106.891 M0.093 248.800 C 0.093 249.570,0.175 249.885,0.276 249.500 C 0.376 249.115,0.376 248.485,0.276 248.100 C 0.175 247.715,0.093 248.030,0.093 248.800 M2.141 252.096 C 1.959 252.390,2.122 252.439,2.634 252.244 C 3.234 252.016,3.296 252.058,2.917 252.439 C 2.538 252.822,2.302 252.817,1.821 252.418 C 1.183 251.888,1.371 251.011,2.034 251.421 C 2.243 251.550,2.291 251.853,2.141 252.096 " stroke="none" fill="#04137c" fill-rule="evenodd"></path></g></svg>